<?xml version="1.0" encoding="UTF-8" standalone="no"?>
<!DOCTYPE svg PUBLIC "-//W3C//DTD SVG 1.1//EN" "http://www.w3.org/Graphics/SVG/1.1/DTD/svg11.dtd">
<svg width="100%" height="100%" viewBox="0 0 221 230" version="1.1" xmlns="http://www.w3.org/2000/svg" xmlns:xlink="http://www.w3.org/1999/xlink" xml:space="preserve" xmlns:serif="http://www.serif.com/" style="fill-rule:evenodd;clip-rule:evenodd;stroke-linejoin:round;stroke-miterlimit:2;">
    <g transform="matrix(1,0,0,1,-526.056,-718.694)">
        <g transform="matrix(1,0,0,1,-1970,0)">
            <g transform="matrix(2,0,0,2,2596.24,947.674)">
                <path d="M0,-114.49L0,-75.74C0,-75.74 -22.561,-31.6 -28.331,-20.312C-28.614,-19.757 -28.589,-19.095 -28.264,-18.564C-27.939,-18.032 -27.361,-17.708 -26.738,-17.708L37.263,-17.708C37.839,-17.708 38.374,-18.006 38.678,-18.496C38.981,-18.985 39.01,-19.597 38.754,-20.113C33.318,-31.071 11.155,-75.74 11.155,-75.74L11.155,-114.49C11.155,-114.49 55.159,-27.688 59.821,-18.494C60.082,-17.978 60.219,-17.407 60.219,-16.828L60.219,-4.281C60.219,-2.254 58.582,-0.017 56.555,-0.006C39.819,0.09 -29.262,-0.103 -46.287,-0.006C-47.294,0 -48.262,-0.396 -48.976,-1.106C-49.69,-1.816 -50.092,-2.782 -50.092,-3.789L-50.092,-16.811C-50.092,-17.401 -49.951,-17.982 -49.68,-18.505C-44.89,-27.758 0,-114.49 0,-114.49" style="fill:rgb(179,179,179);"/>
            </g>
        </g>
    </g>
</svg>
